<svg xmlns="http://www.w3.org/2000/svg" viewBox="0 0 100 100">
  <defs>
    <linearGradient id="hv-brand" x1="0" y1="0" x2="1" y2="1">
      <stop offset="0%" stop-color="#8b5cf6" />
      <stop offset="100%" stop-color="#4f46e5" />
    </linearGradient>
    <radialGradient id="hv-glow" cx="50%" cy="50%" r="50%">
      <stop offset="0%" stop-color="#fbbf24" stop-opacity="0.9" />
      <stop offset="100%" stop-color="#fbbf24" stop-opacity="0" />
    </radialGradient>
    <mask id="hv-hole">
      <rect x="0" y="0" width="100" height="100" fill="#ffffff" />
      <circle cx="66" cy="34" r="9.2" fill="#000000" />
    </mask>
  </defs>

  <rect x="0" y="0" width="100" height="100" rx="22" fill="url(#hv-brand)" />

  <g mask="url(#hv-hole)">
    <polygon points="14,78 36,32 50,44" fill="#ffffff" opacity="0.6" />
    <polygon points="50,44 66,20 86,78" fill="#ffffff" />
    <polygon points="14,78 50,44 50,78" fill="#ffffff" opacity="0.6" />
    <polygon points="50,78 50,44 86,78" fill="#ffffff" opacity="0.88" />
  </g>

  <circle cx="66" cy="34" r="12.5" fill="url(#hv-glow)" />
  <circle cx="66" cy="34" r="9.2" fill="none" stroke="#ffffff" stroke-width="1.6" opacity="0.95" />
  <g stroke="#ffffff" stroke-width="1.3" stroke-linecap="round" opacity="0.85">
    <line x1="66" y1="26.3" x2="66" y2="23.2" transform="rotate(60 66 34)" />
    <line x1="66" y1="26.3" x2="66" y2="23.2" transform="rotate(120 66 34)" />
    <line x1="66" y1="26.3" x2="66" y2="23.2" transform="rotate(180 66 34)" />
    <line x1="66" y1="26.3" x2="66" y2="23.2" transform="rotate(240 66 34)" />
    <line x1="66" y1="26.3" x2="66" y2="23.2" transform="rotate(300 66 34)" />
  </g>
  <line x1="66" y1="25.8" x2="66" y2="22.4" stroke="#fbbf24" stroke-width="1.8" stroke-linecap="round" />
  <circle cx="69" cy="31.4" r="2.7" fill="#fbbf24" />
</svg>
